inDegrees=yes
name=ik_MT_01200627-001-000_orientations_updatedTime
DataType=double
version=3
OpenSimVersion=4.5-2024-07-10-f38669b70
endheader
time	pelvis_tilt	pelvis_list	pelvis_rotation	pelvis_tx	pelvis_ty	pelvis_tz	hip_flexion_r	hip_adduction_r	hip_rotation_r	knee_angle_r	knee_angle_r_beta	ankle_angle_r	subtalar_angle_r	mtp_angle_r	hip_flexion_l	hip_adduction_l	hip_rotation_l	knee_angle_l	knee_angle_l_beta	ankle_angle_l	subtalar_angle_l	mtp_angle_l	lumbar_extension	lumbar_bending	lumbar_rotation	arm_flex_r	arm_add_r	arm_rot_r	elbow_flex_r	pro_sup_r	wrist_flex_r	wrist_dev_r	arm_flex_l	arm_add_l	arm_rot_l	elbow_flex_l	pro_sup_l	wrist_flex_l	wrist_dev_l
1748342937.625505	1.89422119753564	-15.92875590302902	-82.01243740509227	0	0.9399999943917833	0	79.99999999525214	-7.000000001125469	0	79.99999999792263	1.396263401559207	0	0	0	79.99999999525214	-7.000000004501878	0	79.99999999802388	1.396263401560974	0	0	0	-4.827761735579108	-7.876717735371832	1.752158426848811	82.35823608729397	-54.72552903960268	89.95047797162174	14.98579490215829	45.76158574636225	-17.3477622891516	-1.127070033129432	89.95501212420847	-10.21321112225805	78.41824134526672	0.08242972301180679	45.97118608349271	-25.67176159953969	-9.745687897852328
1748342937.635505	1.887276566407583	-15.87489231310194	-81.9927581627032	0	0.9399999943917833	0	79.99999999525214	-7.000000001125469	0	79.99999999792263	1.396263401559207	0	0	0	79.99999999525214	-7.000000004501878	0	79.99999999802388	1.396263401560974	0	0	0	-5.19572481019621	-7.566728809527604	1.678801228651868	82.48432529084518	-54.73665564218992	89.94817789735075	15.13645056405186	45.70683942231391	-17.21837140851985	-1.094150959531764	89.95170365377258	-10.32813912841279	77.6646287361594	0.08482564559141513	46.24378611669968	-25.36076142864532	-9.579251395596419
1748342937.645505	1.883887950880575	-15.82633257036812	-81.97533641215274	0	0.9399999943917833	0	79.99999999525214	-7.000000001125469	0	79.99999999792263	1.396263401559207	0	0	0	79.99999999525214	-7.000000004501878	0	79.99999999802388	1.396263401560974	0	0	0	-5.58501354915502	-7.239198945866584	1.598896727685571	82.60829349309867	-54.73624665483628	89.94575163170195	15.29290968617092	45.60967174342407	-17.08908931912627	-1.053103590197098	89.94756806019454	-10.45650198132554	76.87523842206716	0.08762812621322072	46.55735542732656	-25.03214795362358	-9.413617764670022
1748342937.655505	1.873138496455373	-15.79121369316815	-81.9627567648955	0	0.9399999943917833	0	79.99999999525214	-7.000000001125469	0	79.99999999792263	1.396263401559207	0	0	0	79.99999999525214	-7.000000004501878	0	79.99999999802388	1.396263401560974	0	0	0	-6.016569392545994	-6.88431285735305	1.511111897408627	82.77721578875125	-54.72103053456517	89.94255803631115	15.47478308632005	45.50051469278221	-16.96507200736459	-0.9693836260891778	89.94260621432163	-10.59551481838373	76.00724097375696	0.09053905732857767	46.92408668950785	-24.69388620001157	-9.229367721413729
1748342937.665505	1.862716696774026	-15.77137633671395	-81.94598255594644	0	0.9399999943917833	0	79.99999999525214	-7.000000001125469	0	79.99999999792263	1.396263401559207	0	0	0	79.99999999525214	-7.000000004501878	0	79.99999999802388	1.396263401560974	0	0	0	-6.49225461779595	-6.505391312912463	1.402500193407464	82.98329521146856	-54.69849223667658	89.93876005290696	15.68761678060248	45.39473420831392	-16.82445629054561	-0.8350853939385757	89.93642025389187	-10.73436421431451	75.06162694057987	0.09411856469442634	47.3069999211304	-24.35487902924156	-9.039849313602208
1748342937.675505	1.858648666093806	-15.75198422407121	-81.93371823856923	0	0.9399999943917833	0	79.99999999525214	-7.000000001125469	0	79.99999999792263	1.396263401559207	0	0	0	79.99999999525214	-7.000000004501878	0	79.99999999802388	1.396263401560974	0	0	0	-6.990482209665395	-6.114074277324534	1.297253705620262	83.21784303803321	-54.68847946181369	89.93414836234788	15.94461778965759	45.29107360413258	-16.66073214186997	-0.6548872095672398	89.92797068012131	-10.85514420250682	74.0395873753433	0.09835461967075639	47.69700090438672	-23.98043715205582	-8.834982876110306
1748342937.685505	1.854141208455256	-15.73928103623764	-81.92584871051828	0	0.9399999943917833	0	79.99999999525214	-7.000000001125469	0	79.99999999792263	1.396263401559207	0	0	0	79.99999999525214	-7.000000004501878	0	79.99999999802388	1.396263401560974	0	0	0	-7.522879928177329	-5.703082121808384	1.17949108066197	83.49581314730926	-54.66529407630731	89.92818206337805	16.23761404433472	45.21144383837755	-16.47263003459248	-0.4477739422020973	89.91639143875584	-10.9500741009212	72.9669412871894	0.1040288269695874	48.05937693077401	-23.60999776603522	-8.59477505533796
1748342937.695505	1.890813464729579	-15.72603722872746	-81.94300622300855	0	0.9399999943917833	0	79.99999999525214	-7.000000001125469	0	79.99999999792263	1.396263401559207	0	0	0	79.99999999525214	-7.000000004501878	0	79.99999999802388	1.396263401560974	0	0	0	-8.072868046647915	-5.326316097108227	1.111563975740701	83.78867635424962	-54.67107830558347	89.92046113054089	16.50662753964932	45.13210940652638	-16.16556667907645	-0.2401548398110824	89.8995195312673	-11.03432400298473	71.9451423295714	0.1101378620650628	48.36899137956941	-23.17939761359483	-8.327835611701772
1748342937.705505	1.890418159284097	-15.710545474046	-81.93286279181889	0	0.9399999943917833	0	79.99999999525214	-7.000000001125469	0	79.99999999792263	1.396263401559207	0	0	0	79.99999999525214	-7.000000004501878	0	79.99999999802388	1.396263401560974	0	0	0	-8.635865049420662	-4.862408006669181	0.9937125025058294	84.13260856233528	-54.67583529750974	89.91071241046062	16.83350791669811	45.13561022352967	-15.88845373832853	-0.002888308998690405	89.87227213657449	-11.14543155788771	70.8323806294796	0.1152767914429927	48.76763181709666	-22.75261727110063	-8.051637837006828
1748342937.715505	1.852945986155066	-15.71240682755296	-81.91904910396552	0	0.9399999943917833	0	79.99999999525214	-7.000000001125469	0	79.99999999792263	1.396263401559207	0	0	0	79.99999999525214	-7.000000004501878	0	79.99999999802388	1.396263401560974	0	0	0	-9.235230476200408	-4.315731966906529	0.8397158849915567	84.53822648204385	-54.65386302391365	89.89815265209921	17.17482520583092	45.22893748001961	-15.59125087765506	0.2590708869236968	89.82306380034498	-11.3029545032685	69.68511351205576	0.1210494924058584	49.23347739651355	-22.33075243310152	-7.770038768759787
